<svg width="156px" width="30px;" viewBox="0 0 122 33" version="1.1" xmlns="http://www.w3.org/2000/svg" xmlns:xlink="http://www.w3.org/1999/xlink" xml:space="preserve" xmlns:serif="http://www.serif.com/" style="fill-rule:evenodd;clip-rule:evenodd;stroke-linejoin:round;stroke-miterlimit:2;">
    <g transform="matrix(0.0471297,0,0,0.0471297,-4.12583,-7.89673)">
        <g>
            <g transform="matrix(0.824465,-0.824465,0.908058,0.908058,-330.884,454.444)">
                <path d="M465.29,163.404C465.29,146.096 449.813,132.043 430.749,132.043L430.554,132.043C411.49,132.043 396.013,146.096 396.013,163.404L396.013,372.778C396.013,390.087 411.49,404.139 430.554,404.139L430.749,404.139C449.813,404.139 465.29,390.087 465.29,372.778L465.29,163.404Z" style="fill:rgb(1,130,255);"/>
            </g>
            <g transform="matrix(0.824465,0.824465,0.908058,-0.908058,-330.884,580.859)">
                <path d="M465.29,163.404C465.29,146.096 449.813,132.043 430.749,132.043L430.554,132.043C411.49,132.043 396.013,146.096 396.013,163.404L396.013,372.778C396.013,390.087 411.49,404.139 430.554,404.139L430.749,404.139C449.813,404.139 465.29,390.087 465.29,372.778L465.29,163.404Z" style="fill:rgb(1,130,255);"/>
            </g>
        </g>
        <g transform="matrix(1,0,0,1,692.66,0)">
            <g transform="matrix(0.824465,-0.824465,0.908058,0.908058,-330.884,454.444)">
                <path d="M465.29,163.404C465.29,146.096 449.813,132.043 430.749,132.043L430.554,132.043C411.49,132.043 396.013,146.096 396.013,163.404L396.013,372.778C396.013,390.087 411.49,404.139 430.554,404.139L430.749,404.139C449.813,404.139 465.29,390.087 465.29,372.778L465.29,163.404Z" style="fill:rgb(1,130,255);"/>
            </g>
            <g transform="matrix(0.824465,0.824465,0.908058,-0.908058,-330.884,580.859)">
                <path d="M465.29,163.404C465.29,146.096 449.813,132.043 430.749,132.043L430.554,132.043C411.49,132.043 396.013,146.096 396.013,163.404L396.013,372.778C396.013,390.087 411.49,404.139 430.554,404.139L430.749,404.139C449.813,404.139 465.29,390.087 465.29,372.778L465.29,163.404Z" style="fill:rgb(1,130,255);"/>
            </g>
        </g>
        <g transform="matrix(-1,0,0,1,881.15,0)">
            <g transform="matrix(0.824465,-0.824465,0.908058,0.908058,-330.884,454.444)">
                <path d="M465.29,163.404C465.29,146.096 449.813,132.043 430.749,132.043L430.554,132.043C411.49,132.043 396.013,146.096 396.013,163.404L396.013,372.778C396.013,390.087 411.49,404.139 430.554,404.139L430.749,404.139C449.813,404.139 465.29,390.087 465.29,372.778L465.29,163.404Z" style="fill:rgb(1,130,255);"/>
            </g>
            <g transform="matrix(0.824465,0.824465,0.908058,-0.908058,-330.884,580.859)">
                <path d="M465.29,163.404C465.29,146.096 449.813,132.043 430.749,132.043L430.554,132.043C411.49,132.043 396.013,146.096 396.013,163.404L396.013,372.778C396.013,390.087 411.49,404.139 430.554,404.139L430.749,404.139C449.813,404.139 465.29,390.087 465.29,372.778L465.29,163.404Z" style="fill:rgb(1,130,255);"/>
            </g>
        </g>
        <g transform="matrix(-0.824465,0.824465,-0.908058,-0.908058,1912.3,580.859)">
            <path d="M465.29,163.404C465.29,146.096 449.813,132.043 430.749,132.043L430.554,132.043C411.49,132.043 396.013,146.096 396.013,163.404L396.013,372.778C396.013,390.087 411.49,404.139 430.554,404.139L430.749,404.139C449.813,404.139 465.29,390.087 465.29,372.778L465.29,163.404Z" style="fill:rgb(1,130,255);"/>
        </g>
    </g>
</svg>
